<?xml version="1.0" standalone="no"?><!DOCTYPE svg PUBLIC "-//W3C//DTD SVG 1.1//EN" "http://www.w3.org/Graphics/SVG/1.1/DTD/svg11.dtd"><svg t="1716267909997" class="icon" viewBox="0 0 1024 1024" version="1.1" xmlns="http://www.w3.org/2000/svg" p-id="5301" xmlns:xlink="http://www.w3.org/1999/xlink" width="200" height="200"><path d="M883.626667 155.925333s82.88-32.32 75.946666 46.165334c-2.282667 32.32-22.997333 145.450667-39.125333 267.797333l-55.253333 362.453333s-4.608 53.098667-46.058667 62.336c-41.429333 9.216-103.594667-32.32-115.114667-41.557333-9.216-6.933333-172.672-110.826667-230.229333-161.6-16.128-13.866667-34.56-41.557333 2.304-73.877333L717.824 386.773333c27.626667-27.690667 55.253333-92.330667-59.861333-13.845333l-322.346667 219.306667s-36.842667 23.104-105.898667 2.325333l-149.674666-46.186667s-55.253333-34.624 39.146666-69.248c230.250667-108.501333 513.450667-219.306667 764.394667-323.2z" p-id="5302" fill="#ffffff"></path></svg>